<svg width="19" height="19" viewBox="0 0 19 19" fill="none" xmlns="http://www.w3.org/2000/svg">
<path d="M9.50019 16.8912C13.5823 16.8912 16.8915 13.582 16.8915 9.49994C16.8915 5.41784 13.5823 2.10864 9.50019 2.10864C5.41809 2.10864 2.10889 5.41784 2.10889 9.49994C2.10889 13.582 5.41809 16.8912 9.50019 16.8912Z" fill="white" stroke="#53DD6C" stroke-opacity="0.9" stroke-miterlimit="10" stroke-linecap="round" stroke-linejoin="round"/>
<path d="M9.49994 3.95642C9.70404 3.95642 9.8695 3.79096 9.8695 3.58685C9.8695 3.38275 9.70404 3.21729 9.49994 3.21729C9.29583 3.21729 9.13037 3.38275 9.13037 3.58685C9.13037 3.79096 9.29583 3.95642 9.49994 3.95642Z" fill="#59BF15" fill-opacity="0.9" stroke="#53DD6C" stroke-opacity="0.9" stroke-width="0.5" stroke-miterlimit="10" stroke-linecap="round" stroke-linejoin="round"/>
<path d="M9.49994 15.7826C9.70404 15.7826 9.8695 15.6171 9.8695 15.413C9.8695 15.2089 9.70404 15.0435 9.49994 15.0435C9.29583 15.0435 9.13037 15.2089 9.13037 15.413C9.13037 15.6171 9.29583 15.7826 9.49994 15.7826Z" fill="#59BF15" fill-opacity="0.9" stroke="#53DD6C" stroke-opacity="0.9" stroke-width="0.5" stroke-miterlimit="10" stroke-linecap="round" stroke-linejoin="round"/>
<path d="M15.413 9.8695C15.6171 9.8695 15.7826 9.70404 15.7826 9.49994C15.7826 9.29583 15.6171 9.13037 15.413 9.13037C15.2089 9.13037 15.0435 9.29583 15.0435 9.49994C15.0435 9.70404 15.2089 9.8695 15.413 9.8695Z" fill="#59BF15" fill-opacity="0.9" stroke="#53DD6C" stroke-opacity="0.9" stroke-width="0.5" stroke-miterlimit="10" stroke-linecap="round" stroke-linejoin="round"/>
<path d="M3.58685 9.8695C3.79096 9.8695 3.95642 9.70404 3.95642 9.49994C3.95642 9.29583 3.79096 9.13037 3.58685 9.13037C3.38275 9.13037 3.21729 9.29583 3.21729 9.49994C3.21729 9.70404 3.38275 9.8695 3.58685 9.8695Z" fill="#59BF15" fill-opacity="0.9" stroke="#53DD6C" stroke-opacity="0.9" stroke-width="0.5" stroke-miterlimit="10" stroke-linecap="round" stroke-linejoin="round"/>
<path d="M5.8042 5.06519L10.8303 8.16953L13.1216 13.6391L8.16942 10.4608L5.8042 5.06519Z" fill="#F0F0F0" stroke="#53DD6C" stroke-opacity="0.9" stroke-miterlimit="10" stroke-linecap="round" stroke-linejoin="round"/>
<path d="M7.7998 16.8914L9.49981 18.0001L11.1259 16.8914" fill="#59BF15" fill-opacity="0.9"/>
<path d="M7.7998 16.8914L9.49981 18.0001L11.1259 16.8914" stroke="#53DD6C" stroke-opacity="0.9" stroke-width="0.5" stroke-miterlimit="10" stroke-linecap="round" stroke-linejoin="round"/>
<path d="M11.126 2.10864L9.42597 0.999939L7.79989 2.10864" fill="#59BF15" fill-opacity="0.9"/>
<path d="M11.126 2.10864L9.42597 0.999939L7.79989 2.10864" stroke="#53DD6C" stroke-opacity="0.9" stroke-width="0.5" stroke-miterlimit="10" stroke-linecap="round" stroke-linejoin="round"/>
<path d="M16.8911 11.1631L17.9998 9.46308L16.8911 7.837" fill="#59BF15" fill-opacity="0.9"/>
<path d="M16.8911 11.1631L17.9998 9.46308L16.8911 7.837" stroke="#53DD6C" stroke-opacity="0.9" stroke-width="0.5" stroke-miterlimit="10" stroke-linecap="round" stroke-linejoin="round"/>
<path d="M2.10889 7.83691L1.00018 9.53692L2.10888 11.163" fill="#59BF15" fill-opacity="0.9"/>
<path d="M2.10889 7.83691L1.00018 9.53692L2.10888 11.163" stroke="#53DD6C" stroke-opacity="0.9" stroke-width="0.5" stroke-miterlimit="10" stroke-linecap="round" stroke-linejoin="round"/>
</svg>
