<svg width="21" height="21" viewBox="0 0 21 21" fill="none" xmlns="http://www.w3.org/2000/svg">
<path d="M3 6L1.59685 4.73805C0.801049 3.93805 0.801049 2.53805 1.59685 1.63805C2.39266 0.738051 3.78531 0.83805 4.68059 1.63805L5.82465 2.58789" fill="white"/>
<path d="M18 6L19.4031 4.73805C20.1989 3.93805 20.1989 2.53805 19.4031 1.63805C18.6073 0.738051 17.2147 0.838051 16.3194 1.63805L15.1753 2.58789" fill="white"/>
<path d="M1.59685 4.73805L1.24237 5.09067C1.2489 5.09724 1.25561 5.10362 1.2625 5.10981L1.59685 4.73805ZM4.68059 1.63805L4.34743 2.01089C4.35195 2.01492 4.35654 2.01888 4.3612 2.02275L4.68059 1.63805ZM19.4031 4.73805L19.7375 5.10981C19.7444 5.10362 19.7511 5.09724 19.7576 5.09067L19.4031 4.73805ZM16.3194 1.63805L16.6388 2.02275C16.6435 2.01888 16.648 2.01492 16.6526 2.01089L16.3194 1.63805ZM3.33435 5.62824L1.93121 4.36629L1.2625 5.10981L2.66565 6.37176L3.33435 5.62824ZM1.95133 4.38543C1.36016 3.79113 1.33226 2.69211 1.97142 1.96926L1.22228 1.30685C0.26984 2.38399 0.241942 4.08497 1.24237 5.09067L1.95133 4.38543ZM1.97142 1.96926C2.53496 1.33194 3.59943 1.34249 4.34743 2.01089L5.01375 1.26521C3.9712 0.333616 2.25035 0.144165 1.22228 1.30685L1.97142 1.96926ZM4.3612 2.02275L5.50527 2.97259L6.14404 2.20319L4.99998 1.25335L4.3612 2.02275ZM18.3344 6.37176L19.7375 5.10981L19.0688 4.36629L17.6656 5.62824L18.3344 6.37176ZM19.7576 5.09067C20.7581 4.08497 20.7302 2.38399 19.7777 1.30685L19.0286 1.96926C19.6677 2.69211 19.6398 3.79113 19.0487 4.38543L19.7576 5.09067ZM19.7777 1.30685C18.7496 0.144166 17.0288 0.333616 15.9863 1.26522L16.6526 2.01089C17.4006 1.34249 18.465 1.33194 19.0286 1.96926L19.7777 1.30685ZM16 1.25336L14.856 2.2032L15.4947 2.97259L16.6388 2.02275L16 1.25336Z" fill="#59BF15" fill-opacity="0.9"/>
<path d="M2.5 20V9.53476C2.5 4.75936 6.11905 1 10.5 1C14.881 1 18.5 4.86096 18.5 9.53476V20" fill="white"/>
<path d="M2.5 20V9.53476C2.5 4.75936 6.11905 1 10.5 1C14.881 1 18.5 4.86096 18.5 9.53476V20" stroke="#59BF15" stroke-opacity="0.9" stroke-miterlimit="10" stroke-linecap="round" stroke-linejoin="round"/>
<path d="M12.678 9.13818C12.678 9.13818 11.6832 9.53818 10.589 9.53818C9.49475 9.53818 8.5 9.13818 8.5 9.13818" fill="white"/>
<path d="M12.678 9.13818C12.678 9.13818 11.6832 9.53818 10.589 9.53818C9.49475 9.53818 8.5 9.13818 8.5 9.13818" stroke="#59BF15" stroke-opacity="0.9" stroke-miterlimit="10" stroke-linecap="round" stroke-linejoin="round"/>
<path d="M10.5 7.5L10.5 9.33805" stroke="#59BF15" stroke-opacity="0.9" stroke-miterlimit="10" stroke-linecap="round" stroke-linejoin="round"/>
<path d="M9.5 7.5H11.5" stroke="#59BF15" stroke-opacity="0.9" stroke-miterlimit="10" stroke-linecap="round" stroke-linejoin="round"/>
<path d="M8.13056 5C8.13056 5.57143 7.77056 6 7.29056 6C6.81056 6 6.57056 5.57143 6.57056 5" fill="white"/>
<path d="M8.13056 5C8.13056 5.57143 7.77056 6 7.29056 6C6.81056 6 6.57056 5.57143 6.57056 5" stroke="#59BF15" stroke-opacity="0.9" stroke-width="0.5" stroke-miterlimit="10" stroke-linecap="round" stroke-linejoin="round"/>
<path d="M14.5706 5C14.5706 5.57143 14.2106 6 13.7306 6C13.2506 6 12.8906 5.57143 12.8906 5" fill="white"/>
<path d="M14.5706 5C14.5706 5.57143 14.2106 6 13.7306 6C13.2506 6 12.8906 5.57143 12.8906 5" stroke="#59BF15" stroke-opacity="0.9" stroke-width="0.5" stroke-miterlimit="10" stroke-linecap="round" stroke-linejoin="round"/>
</svg>
