 <svg version="1.0" xmlns="http://www.w3.org/2000/svg" width="700.000000pt" height="933.000000pt" viewBox="0 0 700.000000 933.000000" preserveAspectRatio="xMidYMid meet">
<metadata>
Created by potrace 1.12, written by Peter Selinger 2001-2015
</metadata>
<g transform="translate(0.000000,933.000000) scale(0.100000,-0.100000)" fill="#000000" stroke="none">
<path d="M3270 7310 c0 -6 78 -10 215 -10 137 0 215 4 215 10 0 6 -78 10 -215
10 -137 0 -215 -4 -215 -10z"></path>
<path d="M3150 7300 c0 -5 23 -10 50 -10 28 0 50 5 50 10 0 6 -22 10 -50 10
-27 0 -50 -4 -50 -10z"></path>
<path d="M3730 7301 c0 -6 17 -11 40 -11 50 0 215 -24 301 -44 380 -89 688
-340 821 -671 16 -38 45 -115 65 -170 51 -142 76 -167 29 -29 -108 315 -214
489 -375 618 -156 126 -290 198 -452 245 -170 50 -429 87 -429 62z"></path>
<path d="M3043 7293 c-18 -2 -33 -9 -33 -15 0 -7 14 -8 38 -4 20 3 47 6 60 6
12 0 22 5 22 10 0 10 -24 11 -87 3z"></path>
<path d="M2885 7260 c-179 -47 -306 -106 -448 -208 -160 -114 -266 -241 -347
-414 -39 -84 -130 -323 -130 -342 0 -27 22 21 70 149 91 243 154 351 279 475
83 82 216 177 326 233 74 37 241 92 313 103 23 4 42 10 42 15 0 13 -26 10
-105 -11z"></path>
<path d="M3440 7020 c0 -5 20 -10 45 -10 25 0 45 5 45 10 0 6 -20 10 -45 10
-25 0 -45 -4 -45 -10z"></path>
<path d="M3290 7010 c0 -6 28 -10 65 -10 37 0 65 4 65 10 0 6 -28 10 -65 10
-37 0 -65 -4 -65 -10z"></path>
<path d="M3550 7010 c0 -6 28 -10 65 -10 37 0 65 4 65 10 0 6 -28 10 -65 10
-37 0 -65 -4 -65 -10z"></path>
<path d="M3180 7000 c0 -5 18 -10 40 -10 22 0 40 5 40 10 0 6 -18 10 -40 10
-22 0 -40 -4 -40 -10z"></path>
<path d="M3710 7000 c0 -5 18 -10 40 -10 22 0 40 5 40 10 0 6 -18 10 -40 10
-22 0 -40 -4 -40 -10z"></path>
<path d="M3093 6993 c-18 -2 -33 -9 -33 -15 0 -7 14 -8 38 -4 20 3 43 6 50 6
6 0 12 5 12 10 0 10 -7 10 -67 3z"></path>
<path d="M3810 6993 c0 -5 37 -15 82 -22 173 -27 312 -85 448 -189 128 -98
201 -209 281 -429 19 -51 38 -93 42 -93 20 0 -83 255 -138 345 -73 117 -214
238 -359 306 -99 46 -356 105 -356 82z"></path>
<path d="M2943 6959 c-99 -26 -167 -58 -259 -120 -181 -122 -256 -226 -348
-481 -20 -54 -32 -98 -28 -98 5 0 26 46 47 103 79 214 153 324 284 423 107 81
201 128 314 156 48 13 87 26 87 30 0 11 -16 9 -97 -13z"></path>
<path d="M1918 6234 c-14 -17 -15 -30 -7 -104 14 -130 26 -188 84 -410 61
-232 98 -338 157 -452 109 -209 321 -318 620 -318 104 0 135 9 278 75 63 29
165 68 225 87 98 29 123 33 225 33 102 0 127 -4 219 -33 57 -19 156 -58 220
-87 158 -73 185 -79 354 -72 158 6 226 21 334 72 196 92 286 260 378 705 44
213 55 281 62 391 6 103 5 107 -16 119 -16 8 -40 9 -89 1 -37 -6 -148 -17
-247 -26 -200 -18 -280 -28 -600 -79 -420 -66 -507 -98 -586 -212 l-32 -46
-53 60 c-30 33 -69 70 -87 81 -43 27 -219 76 -337 95 -470 75 -505 80 -780
106 -118 11 -235 23 -260 26 -36 5 -48 2 -62 -12z m804 -428 c136 -29 304
-130 372 -223 40 -54 62 -134 52 -186 -8 -42 -49 -81 -104 -98 -56 -17 -240
-23 -321 -9 -195 33 -362 179 -421 369 -24 77 -25 83 -2 110 37 45 282 67 424
37z m1931 -5 c20 -7 45 -23 54 -37 15 -24 15 -30 -7 -97 -34 -107 -56 -145
-129 -221 -76 -78 -146 -118 -259 -146 -136 -34 -337 -21 -410 26 -36 23 -55
78 -47 135 19 136 192 284 399 340 59 16 95 18 216 15 80 -2 162 -9 183 -15z"></path>
<path d="M1865 5849 c-6 -70 -3 -102 9 -88 9 10 17 169 8 169 -6 0 -13 -36
-17 -81z"></path>
<path d="M5090 5840 c0 -22 5 -40 10 -40 6 0 10 18 10 40 0 22 -4 40 -10 40
-5 0 -10 -18 -10 -40z"></path>
<path d="M5100 5700 c0 -47 4 -80 10 -80 6 0 10 33 10 80 0 47 -4 80 -10 80
-6 0 -10 -33 -10 -80z"></path>
<path d="M1850 5645 c0 -50 4 -85 10 -85 6 0 10 35 10 85 0 50 -4 85 -10 85
-6 0 -10 -35 -10 -85z"></path>
<path d="M5110 5525 c0 -30 5 -55 10 -55 6 0 10 25 10 55 0 30 -4 55 -10 55
-5 0 -10 -25 -10 -55z"></path>
<path d="M1840 5490 c0 -22 5 -40 10 -40 6 0 10 18 10 40 0 22 -4 40 -10 40
-5 0 -10 -18 -10 -40z"></path>
<path d="M5120 5405 c0 -19 5 -35 10 -35 6 0 10 16 10 35 0 19 -4 35 -10 35
-5 0 -10 -16 -10 -35z"></path>
<path d="M1826 5343 c-10 -124 -7 -573 4 -573 6 0 10 93 10 258 0 141 3 287 7
325 4 42 2 67 -4 67 -6 0 -13 -34 -17 -77z"></path>
<path d="M5130 5030 c0 -207 4 -320 10 -320 6 0 10 113 10 320 0 207 -4 320
-10 320 -6 0 -10 -113 -10 -320z"></path>
<path d="M2160 4595 c0 -363 3 -555 10 -555 7 0 10 192 10 555 0 363 -3 555
-10 555 -7 0 -10 -192 -10 -555z"></path>
<path d="M4790 4695 c0 -250 4 -385 10 -385 6 0 10 135 10 385 0 250 -4 385
-10 385 -6 0 -10 -135 -10 -385z"></path>
<path d="M1830 4685 c0 -25 5 -45 10 -45 6 0 10 20 10 45 0 25 -4 45 -10 45
-5 0 -10 -20 -10 -45z"></path>
<path d="M5130 4345 c0 -210 4 -325 10 -325 6 0 10 115 10 325 0 210 -4 325
-10 325 -6 0 -10 -115 -10 -325z"></path>
<path d="M1820 4335 c0 -177 4 -275 10 -275 6 0 10 98 10 275 0 177 -4 275
-10 275 -6 0 -10 -98 -10 -275z"></path>
<path d="M4800 4215 c0 -25 5 -45 10 -45 6 0 10 20 10 45 0 25 -4 45 -10 45
-5 0 -10 -20 -10 -45z"></path>
<path d="M4790 4070 c0 -33 4 -60 10 -60 6 0 10 27 10 60 0 33 -4 60 -10 60
-6 0 -10 -27 -10 -60z"></path>
<path d="M1830 3995 c0 -25 5 -45 10 -45 6 0 10 20 10 45 0 25 -4 45 -10 45
-5 0 -10 -20 -10 -45z"></path>
<path d="M2170 3970 c0 -22 5 -40 10 -40 6 0 10 18 10 40 0 22 -4 40 -10 40
-5 0 -10 -18 -10 -40z"></path>
<path d="M5120 3960 c0 -22 5 -40 10 -40 6 0 10 18 10 40 0 22 -4 40 -10 40
-5 0 -10 -18 -10 -40z"></path>
<path d="M4780 3950 c0 -22 5 -40 10 -40 6 0 10 18 10 40 0 22 -4 40 -10 40
-5 0 -10 -18 -10 -40z"></path>
<path d="M1840 3875 c0 -25 5 -45 10 -45 6 0 10 20 10 45 0 25 -4 45 -10 45
-5 0 -10 -20 -10 -45z"></path>
<path d="M2180 3830 c0 -40 4 -70 10 -70 6 0 10 30 10 70 0 40 -4 70 -10 70
-6 0 -10 -30 -10 -70z"></path>
<path d="M5110 3845 c0 -30 5 -55 10 -55 6 0 10 25 10 55 0 30 -4 55 -10 55
-5 0 -10 -25 -10 -55z"></path>
<path d="M4770 3795 c0 -50 4 -85 10 -85 6 0 10 35 10 85 0 50 -4 85 -10 85
-6 0 -10 -35 -10 -85z"></path>
<path d="M1850 3720 c0 -47 4 -80 10 -80 6 0 10 33 10 80 0 47 -4 80 -10 80
-6 0 -10 -33 -10 -80z"></path>
<path d="M5100 3675 c0 -50 4 -85 10 -85 6 0 10 35 10 85 0 50 -4 85 -10 85
-6 0 -10 -35 -10 -85z"></path>
<path d="M2190 3670 c0 -33 4 -60 10 -60 6 0 10 27 10 60 0 33 -4 60 -10 60
-6 0 -10 -27 -10 -60z"></path>
<path d="M4760 3630 c0 -27 5 -50 10 -50 6 0 10 23 10 50 0 28 -4 50 -10 50
-5 0 -10 -22 -10 -50z"></path>
<path d="M1860 3565 c0 -25 5 -45 10 -45 6 0 10 20 10 45 0 25 -4 45 -10 45
-5 0 -10 -20 -10 -45z"></path>
<path d="M2200 3545 c0 -19 5 -35 10 -35 6 0 10 16 10 35 0 19 -4 35 -10 35
-5 0 -10 -16 -10 -35z"></path>
<path d="M5090 3535 c0 -19 5 -35 10 -35 6 0 10 16 10 35 0 19 -4 35 -10 35
-5 0 -10 -16 -10 -35z"></path>
<path d="M4750 3530 c0 -16 5 -30 10 -30 6 0 10 14 10 30 0 17 -4 30 -10 30
-5 0 -10 -13 -10 -30z"></path>
<path d="M1870 3460 c0 -16 5 -30 10 -30 6 0 10 14 10 30 0 17 -4 30 -10 30
-5 0 -10 -13 -10 -30z"></path>
<path d="M2210 3478 c0 -7 7 -49 15 -93 32 -168 126 -443 202 -589 78 -148
285 -314 463 -370 98 -31 140 -40 140 -29 0 5 -33 17 -72 27 -156 39 -349 158
-442 272 -60 73 -111 174 -169 334 -55 152 -91 280 -108 383 -7 42 -17 77 -21
77 -4 0 -8 -6 -8 -12z"></path>
<path d="M4740 3455 c0 -14 5 -25 10 -25 6 0 10 11 10 25 0 14 -4 25 -10 25
-5 0 -10 -11 -10 -25z"></path>
<path d="M5080 3450 c0 -16 5 -30 10 -30 6 0 10 14 10 30 0 17 -4 30 -10 30
-5 0 -10 -13 -10 -30z"></path>
<path d="M1880 3393 c0 -44 78 -324 127 -458 124 -336 237 -491 479 -653 142
-95 290 -153 488 -191 115 -23 146 -25 146 -13 0 4 -50 15 -112 25 -408 66
-727 287 -893 617 -77 154 -188 491 -210 643 -7 44 -25 67 -25 30z"></path>
<path d="M4722 3348 c-36 -176 -150 -481 -221 -590 -107 -163 -326 -306 -526
-344 -19 -3 -35 -11 -35 -16 0 -19 158 26 245 70 147 73 293 205 358 324 50
90 141 335 177 472 32 124 35 146 22 146 -4 0 -14 -28 -20 -62z"></path>
<path d="M5070 3380 c0 -11 5 -20 10 -20 6 0 10 9 10 20 0 11 -4 20 -10 20 -5
0 -10 -9 -10 -20z"></path>
<path d="M5037 3223 c-16 -64 -53 -184 -84 -267 -65 -179 -70 -195 -55 -181
23 22 136 346 166 478 18 77 19 87 9 87 -5 0 -21 -53 -36 -117z"></path>
<path d="M4830 2666 c-90 -159 -209 -278 -394 -394 -141 -89 -305 -146 -495
-173 -50 -7 -91 -16 -91 -21 0 -12 26 -10 147 12 185 33 357 101 493 194 130
89 213 165 283 258 46 62 120 195 115 210 -2 6 -28 -33 -58 -86z"></path>
<path d="M3050 2390 c0 -5 9 -10 20 -10 11 0 20 5 20 10 0 6 -9 10 -20 10 -11
0 -20 -4 -20 -10z"></path>
<path d="M3848 2393 c-38 -4 -54 -23 -20 -23 37 0 92 13 92 21 0 5 -8 8 -17 7
-10 -1 -35 -3 -55 -5z"></path>
<path d="M3110 2381 c0 -10 118 -26 127 -17 10 10 1 13 -64 20 -38 4 -63 3
-63 -3z"></path>
<path d="M3730 2370 c0 -5 14 -10 30 -10 17 0 30 5 30 10 0 6 -13 10 -30 10
-16 0 -30 -4 -30 -10z"></path>
<path d="M3270 2360 c0 -6 30 -10 70 -10 40 0 70 4 70 10 0 6 -30 10 -70 10
-40 0 -70 -4 -70 -10z"></path>
<path d="M3498 2363 c-33 -2 -58 -9 -58 -15 0 -8 24 -9 77 -4 42 3 100 6 130
6 29 0 53 5 53 10 0 10 -75 11 -202 3z"></path>
<path d="M3140 2070 c0 -5 16 -10 35 -10 19 0 35 5 35 10 0 6 -16 10 -35 10
-19 0 -35 -4 -35 -10z"></path>
<path d="M3760 2070 c0 -5 16 -10 35 -10 19 0 35 5 35 10 0 6 -16 10 -35 10
-19 0 -35 -4 -35 -10z"></path>
<path d="M3240 2060 c0 -6 90 -10 250 -10 160 0 250 4 250 10 0 6 -90 10 -250
10 -160 0 -250 -4 -250 -10z"></path>
</g>
</svg>